Coordinates
version=1
nRows=15
nColumns=34
inDegrees=no

Units are S.I. units (second, meters, Newtons, ...)
If the header above contains a line with 'inDegrees', this indicates whether rotational values are in degrees (yes) or radians (no).

endheader
time	pelvis_tilt	pelvis_list	pelvis_rotation	pelvis_tx	pelvis_ty	pelvis_tz	hip_flexion_r	hip_adduction_r	hip_rotation_r	knee_angle_r	ankle_angle_r	subtalar_angle_r	mtp_angle_r	hip_flexion_l	hip_adduction_l	hip_rotation_l	knee_angle_l	ankle_angle_l	subtalar_angle_l	mtp_angle_l	lumbar_extension	lumbar_bending	lumbar_rotation	arm_flex_r	arm_add_r	arm_rot_r	elbow_flex_r	pro_sup_r	arm_flex_l	arm_add_l	arm_rot_l	elbow_flex_l	pro_sup_l
0	0.193626	-0.00572952	0.0419067	-0.598049	0.564841	-0.623079	1.37444	-0.323194	0.170518	1.65157	0.00713898	-0.549496	-0.00241763	1.3834	-0.210341	0.174276	1.64455	-0.0731205	-0.610865	-0.00241763	-0.320662	0.0323587	-0.0566521	-0.112608	-0.148945	-0.145007	2.14116	1.69085	-0.133895	-0.111124	-0.227556	2.08352	1.67882
0.01	0.193332	-0.00620421	0.0421635	-0.598026	0.564868	-0.623123	1.37477	-0.323545	0.169977	1.65176	0.00652166	-0.549343	-0.00241763	1.38393	-0.21018	0.174779	1.64458	-0.0733977	-0.610865	-0.00241763	-0.320093	0.0327541	-0.0564372	-0.113058	-0.149036	-0.145173	2.14085	1.69007	-0.134139	-0.110958	-0.226978	2.08345	1.67608
0.02	0.193344	-0.00629821	0.0421311	-0.598042	0.564881	-0.623123	1.37467	-0.323541	0.16967	1.65166	0.00670469	-0.54949	-0.00241763	1.38397	-0.21023	0.174822	1.6446	-0.0733741	-0.610865	-0.00241763	-0.320131	0.0328072	-0.0562844	-0.113147	-0.148918	-0.145131	2.14092	1.68908	-0.134278	-0.111026	-0.226852	2.08355	1.67457
0.03	0.193552	-0.00602983	0.0419645	-0.598066	0.564886	-0.623097	1.37434	-0.323376	0.169729	1.65143	0.00724548	-0.549847	-0.00241763	1.3836	-0.210254	0.174549	1.64455	-0.0730751	-0.610865	-0.00241763	-0.320383	0.0323918	-0.0562919	-0.113095	-0.148652	-0.144691	2.14106	1.68668	-0.134301	-0.11118	-0.227152	2.08363	1.67471
0.04	0.193371	-0.00592105	0.0419165	-0.598042	0.564917	-0.623109	1.37437	-0.323369	0.169737	1.65124	0.00746223	-0.549827	-0.00241763	1.3836	-0.210128	0.174467	1.64443	-0.0728628	-0.610865	-0.00241763	-0.319645	0.0319537	-0.056327	-0.113284	-0.148536	-0.144223	2.14037	1.68377	-0.13444	-0.111055	-0.227172	2.08316	1.67492
0.05	0.192749	-0.00615631	0.0419261	-0.597981	0.564972	-0.623154	1.37486	-0.323476	0.169451	1.65113	0.00742079	-0.549228	-0.00241763	1.38415	-0.210092	0.174625	1.64431	-0.072897	-0.610865	-0.00241763	-0.317988	0.0317753	-0.0561435	-0.113694	-0.148608	-0.144199	2.13899	1.6819	-0.134708	-0.110731	-0.22668	2.08211	1.67459
0.06	0.192413	-0.00624233	0.0418746	-0.59795	0.565003	-0.623161	1.37515	-0.323507	0.169365	1.6511	0.00747607	-0.548734	-0.00241763	1.38442	-0.210163	0.174584	1.64424	-0.0729534	-0.610865	-0.00241763	-0.316977	0.0314658	-0.0558337	-0.114063	-0.148583	-0.144375	2.13816	1.68071	-0.134719	-0.110592	-0.226497	2.08123	1.6755
0.07	0.192617	-0.00600505	0.0418442	-0.597965	0.564997	-0.623137	1.37495	-0.323453	0.169638	1.65109	0.00775029	-0.54881	-0.00241763	1.3841	-0.210131	0.174275	1.64418	-0.0729496	-0.610865	-0.00241763	-0.317105	0.0309233	-0.0556488	-0.114305	-0.148406	-0.144294	2.1383	1.67881	-0.134391	-0.110582	-0.227064	2.08084	1.67822
0.08	0.192901	-0.00587406	0.0418849	-0.597988	0.564985	-0.623129	1.37463	-0.323449	0.169752	1.65108	0.00799032	-0.548989	-0.00241763	1.38378	-0.210061	0.174145	1.64416	-0.0730608	-0.610865	-0.00241763	-0.317432	0.0306132	-0.0555788	-0.114453	-0.148251	-0.144092	2.13866	1.67718	-0.13414	-0.110525	-0.227662	2.08072	1.6803
0.09	0.193099	-0.00602617	0.0419148	-0.598001	0.564984	-0.623133	1.3745	-0.323561	0.16958	1.6512	0.00778654	-0.548762	-0.00241763	1.38367	-0.210119	0.174369	1.64423	-0.0732911	-0.610865	-0.00241763	-0.31757	0.0306467	-0.0555389	-0.114441	-0.148221	-0.144008	2.13873	1.67668	-0.134188	-0.110601	-0.22778	2.08068	1.6808
0.1	0.193418	-0.00621375	0.0419418	-0.598023	0.564998	-0.623138	1.37432	-0.323674	0.169483	1.65137	0.00730616	-0.548299	-0.00241763	1.38345	-0.210199	0.174621	1.64429	-0.0734155	-0.610865	-0.00241763	-0.317874	0.0307074	-0.055579	-0.114268	-0.148364	-0.143917	2.13869	1.67634	-0.134292	-0.110818	-0.227873	2.08064	1.68137
0.11	0.193849	-0.00631349	0.0420257	-0.59806	0.565021	-0.623148	1.37382	-0.323617	0.169492	1.65133	0.00724095	-0.548075	-0.00241763	1.38304	-0.210213	0.174681	1.64425	-0.0733034	-0.610865	-0.00241763	-0.318366	0.0306766	-0.0556495	-0.114102	-0.148612	-0.143728	2.13871	1.67546	-0.134216	-0.11091	-0.228285	2.08052	1.68238
0.12	0.19424	-0.0063689	0.042077	-0.5981	0.565033	-0.623143	1.37318	-0.323405	0.169394	1.65113	0.00764994	-0.548303	-0.00241763	1.38268	-0.210283	0.174665	1.6442	-0.0731011	-0.610865	-0.00241763	-0.318807	0.0305832	-0.0555791	-0.114002	-0.148744	-0.143623	2.13881	1.67467	-0.134017	-0.110881	-0.228649	2.08046	1.68261
0.13	0.194596	-0.00631454	0.042028	-0.598138	0.565028	-0.623116	1.37276	-0.323299	0.169297	1.65106	0.00790014	-0.548713	-0.00241763	1.38234	-0.210388	0.174623	1.64423	-0.0730879	-0.610865	-0.00241763	-0.319191	0.0303356	-0.055422	-0.11385	-0.148699	-0.143658	2.13888	1.67425	-0.133837	-0.11087	-0.228773	2.08054	1.68221
0.14	0.194964	-0.00610134	0.0419971	-0.598176	0.565031	-0.623098	1.37255	-0.323428	0.169431	1.65115	0.00776852	-0.548908	-0.00241763	1.38193	-0.210347	0.17445	1.64426	-0.0732588	-0.610865	-0.00241763	-0.319589	0.0299221	-0.0554198	-0.113615	-0.148678	-0.1436	2.13884	1.67395	-0.133754	-0.110835	-0.228966	2.08068	1.68185
